<svg width="42" height="52" viewBox="0 0 42 52" fill="none" xmlns="http://www.w3.org/2000/svg">
<g id="Group 33619">
<path id="Exclude" fill-rule="evenodd" clip-rule="evenodd" d="M21.0002 1.45841C21.0002 0.745047 20.4219 0.166748 19.7085 0.166748H10.6668C4.95989 0.166748 0.333496 4.79314 0.333496 10.5001V41.5001C0.333496 47.207 4.95989 51.8334 10.6668 51.8334H31.3335C37.0404 51.8334 41.6668 47.207 41.6668 41.5001V22.1251C41.6668 21.4117 41.0885 20.8334 40.3752 20.8334H33.9168C26.7832 20.8334 21.0002 15.0504 21.0002 7.91675V1.45841ZM39.6504 15.6667C40.5094 15.6667 41.1267 14.8373 40.7141 14.0839C40.3638 13.4443 39.9219 12.8518 39.3969 12.3268L29.5068 2.43667C28.9818 1.9117 28.3893 1.46981 27.7496 1.11949C26.9963 0.706888 26.1668 1.3242 26.1668 2.18316V7.91675C26.1668 12.197 29.6366 15.6667 33.9168 15.6667H39.6504ZM13.2502 18.2501C11.8234 18.2501 10.6668 19.4067 10.6668 20.8334C10.6668 22.2602 11.8234 23.4167 13.2502 23.4167H15.8335C17.2602 23.4167 18.4168 22.2602 18.4168 20.8334C18.4168 19.4067 17.2602 18.2501 15.8335 18.2501H13.2502ZM10.6668 31.1667C10.6668 29.74 11.8234 28.5834 13.2502 28.5834H28.7502C30.1769 28.5834 31.3335 29.74 31.3335 31.1667C31.3335 32.5935 30.1769 33.7501 28.7502 33.7501H13.2502C11.8234 33.7501 10.6668 32.5935 10.6668 31.1667ZM10.6668 41.5001C10.6668 40.0733 11.8234 38.9168 13.2502 38.9168H28.7502C30.1769 38.9168 31.3335 40.0733 31.3335 41.5001C31.3335 42.9268 30.1769 44.0834 28.7502 44.0834H13.2502C11.8234 44.0834 10.6668 42.9268 10.6668 41.5001Z" fill="#0000FF"/>
</g>
</svg>
