<svg width="62" height="62" viewBox="0 0 62 62" fill="none" xmlns="http://www.w3.org/2000/svg">
<g id="icon_filled/Message_check">
<path id="Exclude" fill-rule="evenodd" clip-rule="evenodd" d="M30.9998 5.16675C16.7325 5.16675 5.1665 16.7327 5.1665 31.0001C5.1665 35.6895 6.41814 40.0924 8.60561 43.8865C9.05112 44.6593 9.12752 45.6001 8.75158 46.409L6.54615 51.1541C5.19198 53.7162 7.04553 56.8334 9.97561 56.8334H30.9998C45.2672 56.8334 56.8332 45.2674 56.8332 31.0001C56.8332 16.7327 45.2672 5.16675 30.9998 5.16675ZM40.5167 23.9488C41.5576 24.9246 41.6103 26.5594 40.6345 27.6003L30.947 37.9336C30.0215 38.9208 28.4911 39.0265 27.4387 38.1761L21.6262 33.4791C20.5165 32.5824 20.3438 30.9558 21.2405 29.8461C22.1373 28.7364 23.7638 28.5638 24.8735 29.4605L28.8192 32.6489L36.8652 24.0666C37.841 23.0257 39.4758 22.973 40.5167 23.9488Z" fill="#0000FF"/>
</g>
</svg>
