<svg width="62" height="62" viewBox="0 0 62 62" fill="none" xmlns="http://www.w3.org/2000/svg">
<g id="icon_filled/unlock">
<path id="Union" fill-rule="evenodd" clip-rule="evenodd" d="M20.6668 23.25C14.9599 23.25 10.3335 27.8764 10.3335 33.5833V46.5C10.3335 52.2069 14.9599 56.8333 20.6668 56.8333H41.3335C47.0404 56.8333 51.6668 52.2069 51.6668 46.5V33.5833C51.6668 27.8764 47.0404 23.25 41.3335 23.25H20.6668Z" fill="#0000FF"/>
<path id="Rectangle 15 (Stroke)" fill-rule="evenodd" clip-rule="evenodd" d="M20.6665 15.5001C20.6665 9.79314 25.2929 5.16675 30.9998 5.16675C36.7068 5.16675 41.3332 9.79314 41.3332 15.5001V16.7917C41.3332 18.2185 40.1766 19.3751 38.7498 19.3751C37.3231 19.3751 36.1665 18.2185 36.1665 16.7917V15.5001C36.1665 12.6466 33.8533 10.3334 30.9998 10.3334C28.1464 10.3334 25.8332 12.6466 25.8332 15.5001V25.8334C25.8332 27.2601 24.6766 28.4167 23.2498 28.4167C21.8231 28.4167 20.6665 27.2601 20.6665 25.8334V15.5001Z" fill="#0000FF"/>
</g>
</svg>
