<svg width="17" height="17" viewBox="0 0 17 17" xmlns="http://www.w3.org/2000/svg">
<path d="M12.75 4.78125V14.3438C12.75 14.4846 12.694 14.6198 12.5944 14.7194C12.4948 14.819 12.3596 14.875 12.2188 14.875H2.65625C2.51535 14.875 2.38023 14.819 2.2806 14.7194C2.18097 14.6198 2.125 14.4846 2.125 14.3438V4.78125C2.125 4.64035 2.18097 4.50523 2.2806 4.4056C2.38023 4.30597 2.51535 4.25 2.65625 4.25H12.2188C12.3596 4.25 12.4948 4.30597 12.5944 4.4056C12.694 4.50523 12.75 4.64035 12.75 4.78125ZM14.3438 2.125H4.78125C4.64035 2.125 4.50523 2.18097 4.4056 2.2806C4.30597 2.38023 4.25 2.51535 4.25 2.65625C4.25 2.79715 4.30597 2.93227 4.4056 3.0319C4.50523 3.13153 4.64035 3.1875 4.78125 3.1875H13.8125V12.2188C13.8125 12.3596 13.8685 12.4948 13.9681 12.5944C14.0677 12.694 14.2029 12.75 14.3438 12.75C14.4846 12.75 14.6198 12.694 14.7194 12.5944C14.819 12.4948 14.875 12.3596 14.875 12.2188V2.65625C14.875 2.51535 14.819 2.38023 14.7194 2.2806C14.6198 2.18097 14.4846 2.125 14.3438 2.125Z"/>
</svg>
