<svg width="19" height="19" viewBox="0 0 19 19" fill="none" xmlns="http://www.w3.org/2000/svg">
<path d="M15.8576 6.11117L11.7013 1.95492C11.6461 1.8998 11.5806 1.85609 11.5086 1.82629C11.4365 1.7965 11.3592 1.78119 11.2812 1.78125H4.15625C3.84131 1.78125 3.53926 1.90636 3.31656 2.12906C3.09386 2.35176 2.96875 2.65381 2.96875 2.96875V16.0312C2.96875 16.3462 3.09386 16.6482 3.31656 16.8709C3.53926 17.0936 3.84131 17.2188 4.15625 17.2188H14.8438C15.1587 17.2188 15.4607 17.0936 15.6834 16.8709C15.9061 16.6482 16.0312 16.3462 16.0312 16.0312V6.53125C16.0313 6.45325 16.016 6.37601 15.9862 6.30393C15.9564 6.23185 15.9127 6.16635 15.8576 6.11117ZM11.7013 12.2951L9.92008 14.0763C9.86493 14.1315 9.79945 14.1753 9.72737 14.2052C9.65529 14.2351 9.57803 14.2505 9.5 14.2505C9.42197 14.2505 9.34471 14.2351 9.27263 14.2052C9.20055 14.1753 9.13507 14.1315 9.07992 14.0763L7.29867 12.2951C7.18726 12.1837 7.12467 12.0326 7.12467 11.875C7.12467 11.7174 7.18726 11.5663 7.29867 11.4549C7.41008 11.3435 7.56119 11.2809 7.71875 11.2809C7.87631 11.2809 8.02742 11.3435 8.13883 11.4549L8.90625 12.2231V8.90625C8.90625 8.74878 8.96881 8.59775 9.08016 8.48641C9.1915 8.37506 9.34253 8.3125 9.5 8.3125C9.65747 8.3125 9.8085 8.37506 9.91985 8.48641C10.0312 8.59775 10.0938 8.74878 10.0938 8.90625V12.2231L10.8612 11.4549C10.9726 11.3435 11.1237 11.2809 11.2812 11.2809C11.4388 11.2809 11.5899 11.3435 11.7013 11.4549C11.8127 11.5663 11.8753 11.7174 11.8753 11.875C11.8753 12.0326 11.8127 12.1837 11.7013 12.2951ZM11.2812 6.53125V3.26563L14.5469 6.53125H11.2812Z" fill="#0000FF"/>
</svg>
