<?xml version="1.0" encoding="utf-8"?><svg viewBox="0 0 169 58" xmlns="http://www.w3.org/2000/svg" xmlns:xlink="http://www.w3.org/1999/xlink"><style>:root>svg{display:none}:root>svg:target{display:block}</style><svg viewBox="0 0 16 10" id="accordionArrow" xmlns="http://www.w3.org/2000/svg"><path d="m1 9 7.5-7L16 9"/></svg><svg fill="none" viewBox="0 0 25 19" id="burger" xmlns="http://www.w3.org/2000/svg"><path d="M0 1.5h25M0 9.5h25M0 17.5h25" stroke="#333" stroke-width="2"/></svg><svg viewBox="0 0 24 20" id="close" xmlns="http://www.w3.org/2000/svg"><path d="M3.661 1 21.34 18.678M12 10h1M3.661 19 21.34 1.322"/></svg><svg viewBox="0 0 17 17" id="copy" xmlns="http://www.w3.org/2000/svg"><path d="M12.75 4.781v9.563a.531.531 0 0 1-.531.531H2.656a.531.531 0 0 1-.531-.531V4.78a.531.531 0 0 1 .531-.531h9.563a.531.531 0 0 1 .531.531Zm1.594-2.656H4.78a.531.531 0 1 0 0 1.063h9.032v9.03a.531.531 0 0 0 1.062 0V2.657a.531.531 0 0 0-.531-.531Z"/></svg><svg fill="none" viewBox="0 0 43 16" id="doubleArrow" xmlns="http://www.w3.org/2000/svg"><path d="m14.68 8.16 5.24 7.56h-5.8L9 8.16 14.12.6h5.8l-5.24 7.56Zm-8.96 0 5.24 7.56H5.2L.08 8.16 5.2.6h5.76L5.72 8.16ZM22.892.6h5.76l5.12 7.56-5.12 7.56h-5.76l5.2-7.56-5.2-7.56Zm8.92 0h5.76l5.16 7.56-5.16 7.56h-5.76l5.24-7.56L31.813.6Z" fill="#00F"/></svg><svg fill="none" viewBox="0 0 19 19" id="download" xmlns="http://www.w3.org/2000/svg"><path d="M15.858 6.111 11.7 1.955a.595.595 0 0 0-.42-.174H4.156A1.188 1.188 0 0 0 2.97 2.97V16.03a1.187 1.187 0 0 0 1.187 1.188h10.688a1.187 1.187 0 0 0 1.187-1.188v-9.5a.593.593 0 0 0-.173-.42ZM11.7 12.295l-1.78 1.781a.594.594 0 0 1-.841 0l-1.781-1.78a.594.594 0 0 1 .84-.841l.767.768V8.906a.594.594 0 0 1 1.188 0v3.317l.767-.768a.594.594 0 1 1 .84.84Zm-.42-5.764V3.266l3.266 3.265H11.28Z" fill="#00F"/></svg><svg fill="none" viewBox="0 0 169 25" id="logo" xmlns="http://www.w3.org/2000/svg"><path d="M71.115 9.92v14.902H56.212v-3.826h7.767c-2.627-5.25-6.666-11.079-9.619-11.079-1.885 0-3.237 3.195-4.544 6.286-1.711 4.04-3.648 8.62-8.068 8.62s-6.358-4.58-8.07-8.62c-1.305-3.091-2.657-6.286-4.544-6.286-1.887 0-3.237 3.195-4.544 6.286-1.711 4.04-3.648 8.62-8.07 8.62-3.312 0-6.774-2.808-10.286-8.34a56.542 56.542 0 0 1-2.41-4.218v8.729H0V6.091h14.9v3.826h-8c2.625 5.251 6.667 11.08 9.62 11.08 1.887 0 3.24-3.195 4.547-6.284 1.708-4.042 3.647-8.622 8.067-8.622s6.359 4.58 8.068 8.622c1.307 3.089 2.66 6.283 4.546 6.283 1.888 0 3.237-3.194 4.545-6.283C48 10.67 49.94 6.09 54.36 6.09c3.312 0 6.774 2.808 10.286 8.34a57.396 57.396 0 0 1 2.643 4.671V9.92h3.826Z" fill="#00F"/><path d="m84.584 20.614-1.59 4.209H78.07L86.61 2.75h5.112l8.417 22.072h-4.958l-1.528-4.21h-9.072.002Zm1.31-3.99h6.421l-3.18-9.073-3.242 9.072ZM105.5 14.722h6.391V8.394h4.397v16.428h-4.397v-6.297H105.5v6.298h-4.396V8.394h4.396v6.328ZM123.393 18.558v6.265h-4.397V8.394h4.397v6.359h2.182l3.554-6.359h5.019l-4.864 7.793 5.237 8.636h-5.112l-3.679-6.265h-2.337ZM139.885 18.215l7.607-9.819h3.772v16.427h-4.427v-9.51l-7.389 9.51h-3.96V8.394h4.397V18.215ZM169 8.394v16.428h-4.397V12.23h-4.645c-.042.934-.077 1.87-.108 2.804-.03.935-.077 1.88-.141 2.838-.042.437-.082.895-.124 1.371-.042.479-.108.967-.202 1.465-.094.497-.23.967-.406 1.403a4.52 4.52 0 0 1-.702 1.186 3.978 3.978 0 0 1-1.932 1.216 8.53 8.53 0 0 1-2.307.312h-1.465v-3.866h.437c.54 0 .972-.12 1.293-.36.322-.239.561-.56.716-.966.155-.406.275-.852.359-1.34.082-.489.146-.994.188-1.512.103-1.31.171-2.65.202-4.021.03-1.37.068-2.826.108-4.364h13.123l.003-.002ZM141.741 5.518 137.751 0h4.427l3.46 5.518h-3.897Z" fill="#333"/></svg><svg fill="none" viewBox="0 0 161 20" id="logoInsurance" xmlns="http://www.w3.org/2000/svg"><path d="M3.027 7.88c0 .6.073 1.18.22 1.74.16.56.393 1.053.7 1.48.32.427.72.773 1.2 1.04.493.253 1.08.38 1.76.38.853 0 1.553-.187 2.1-.56.56-.387.907-.92 1.04-1.6h2.8c-.067.787-.273 1.48-.62 2.08a4.91 4.91 0 0 1-1.34 1.48c-.547.4-1.167.7-1.86.9-.693.2-1.413.3-2.16.3-1.107 0-2.087-.18-2.94-.54a6.145 6.145 0 0 1-2.14-1.5 6.406 6.406 0 0 1-1.3-2.28c-.293-.88-.44-1.847-.44-2.9 0-1.027.147-1.98.44-2.86.307-.893.753-1.66 1.34-2.3a6.024 6.024 0 0 1 2.14-1.52C4.82.847 5.8.66 6.907.66c.773 0 1.5.093 2.18.28.68.187 1.287.473 1.82.86a4.44 4.44 0 0 1 1.3 1.5c.347.6.56 1.32.64 2.16h-2.8a2.624 2.624 0 0 0-1.04-1.62c-.547-.4-1.247-.6-2.1-.6-.68 0-1.267.127-1.76.38-.48.253-.88.6-1.2 1.04-.307.427-.54.92-.7 1.48a6.84 6.84 0 0 0-.22 1.74ZM14.02 6.9V4.46h9.82V6.9h-3.52V15H17.5V6.9h-3.48Zm14.04-1.02c.414-.507.928-.9 1.54-1.18a4.64 4.64 0 0 1 1.881-.46 4.91 4.91 0 0 1 2.08.4c.64.267 1.173.72 1.6 1.36.347.467.6 1.013.76 1.64.16.627.24 1.287.24 1.98 0 .867-.107 1.653-.32 2.36a4.211 4.211 0 0 1-1.04 1.8c-.413.453-.92.8-1.52 1.04-.6.227-1.2.34-1.8.34-.293 0-.587-.02-.88-.06a4.132 4.132 0 0 1-1.76-.58 3.506 3.506 0 0 1-.8-.7v5.58h-2.82V4.46h2.68l.16 1.42Zm2.64.88c-.412 0-.786.08-1.119.24-.32.147-.593.353-.82.62a3.16 3.16 0 0 0-.54.92c-.12.347-.18.72-.18 1.12-.013.893.22 1.613.7 2.16.493.533 1.16.813 2 .84.453 0 .84-.073 1.16-.22.32-.147.58-.353.78-.62.213-.267.373-.58.48-.94.12-.36.18-.753.18-1.18 0-.413-.06-.8-.18-1.16a2.55 2.55 0 0 0-.5-.94 2.162 2.162 0 0 0-.8-.62c-.32-.147-.707-.22-1.16-.22Zm14.017 6.94c-.4.533-.894.913-1.48 1.14-.574.227-1.234.333-1.98.32-.974-.027-1.787-.3-2.44-.82a3.26 3.26 0 0 1-.82-1.04c-.187-.413-.28-.9-.28-1.46.013-.573.14-1.08.38-1.52.253-.453.633-.827 1.14-1.12a4.82 4.82 0 0 1 1.44-.48c.546-.093 1.14-.14 1.78-.14h2.16c.04-.653-.114-1.14-.46-1.46-.334-.333-.807-.507-1.42-.52a5 5 0 0 0-.62.04c-.214.027-.414.08-.6.16-.174.08-.327.193-.46.34-.12.133-.2.3-.24.5h-2.9c.066-.64.24-1.173.52-1.6.293-.44.66-.793 1.1-1.06.44-.267.926-.453 1.46-.56a7.813 7.813 0 0 1 1.68-.18c.32 0 .646.02.98.06.333.027.66.093.98.2.32.093.62.227.9.4.293.16.566.373.82.64.453.52.733 1.12.84 1.8.12.667.173 1.32.16 1.96V15h-2.58l-.06-1.3Zm-.1-3.36h-2.06c-.2 0-.427.02-.68.06-.254.04-.474.113-.66.22a1.608 1.608 0 0 0-.48.42c-.12.173-.18.387-.18.64 0 .213.04.4.12.56.093.16.206.293.34.4.146.107.32.193.52.26.2.053.4.08.6.08.386.013.746-.053 1.08-.2.346-.147.646-.353.9-.62.16-.213.28-.453.36-.72.093-.28.14-.647.14-1.1Zm11.305-5.88h3.2l-3.38 5.22 3.56 5.32h-3.18l-2.18-3.5-2.1 3.5h-3.16l3.48-5.36-3.3-5.18h3.24l1.94 3.42 1.88-3.42Zm9.447 10.7c-1.706 0-3.02-.48-3.94-1.44-.92-.973-1.38-2.32-1.38-4.04 0-.827.12-1.573.36-2.24.254-.68.6-1.26 1.04-1.74a4.271 4.271 0 0 1 1.66-1.08c.667-.253 1.42-.38 2.26-.38.827 0 1.567.127 2.22.38.667.24 1.227.6 1.68 1.08.467.48.82 1.06 1.06 1.74.254.667.38 1.413.38 2.24 0 1.733-.466 3.08-1.4 4.04-.92.96-2.233 1.44-3.94 1.44Zm0-8.4c-.853 0-1.493.28-1.92.84-.413.56-.62 1.26-.62 2.1 0 .853.207 1.56.62 2.12.427.56 1.067.84 1.92.84.854 0 1.48-.28 1.88-.84.414-.56.62-1.267.62-2.12 0-.84-.206-1.54-.62-2.1-.4-.56-1.026-.84-1.88-.84Zm12.271-2.3c.28 0 .573.007.88.02.307 0 .607.02.9.06.293.04.573.113.84.22.267.093.514.233.74.42.267.213.48.5.64.86.16.347.24.753.24 1.22 0 .4-.106.8-.32 1.2-.2.4-.52.727-.96.98.573.2.993.527 1.26.98.28.453.407.967.38 1.54-.026.547-.153 1.013-.38 1.4-.227.373-.493.68-.8.92-.44.307-.947.507-1.52.6a9.748 9.748 0 0 1-1.78.12h-5.04V4.46h4.92Zm.32 4.16c.32 0 .6-.067.84-.2.24-.147.36-.4.36-.76 0-.213-.046-.373-.14-.48a.787.787 0 0 0-.36-.26 1.412 1.412 0 0 0-.48-.12c-.16-.027-.32-.04-.48-.04h-2.16v1.86h2.42Zm-.2 4c.174 0 .354-.007.54-.02.2-.027.38-.073.54-.14a.913.913 0 0 0 .42-.32.928.928 0 0 0 .16-.56c0-.2-.04-.367-.12-.5a.68.68 0 0 0-.28-.3 1.314 1.314 0 0 0-.44-.14c-.16-.027-.32-.04-.48-.04h-2.56v2.02h2.22Zm11.486 2.54c-1.707 0-3.02-.48-3.94-1.44-.92-.973-1.38-2.32-1.38-4.04 0-.827.12-1.573.36-2.24.253-.68.6-1.26 1.04-1.74a4.27 4.27 0 0 1 1.66-1.08c.667-.253 1.42-.38 2.26-.38.827 0 1.567.127 2.22.38.667.24 1.227.6 1.68 1.08.467.48.82 1.06 1.06 1.74.253.667.38 1.413.38 2.24 0 1.733-.467 3.08-1.4 4.04-.92.96-2.233 1.44-3.94 1.44Zm0-8.4c-.853 0-1.493.28-1.92.84-.413.56-.62 1.26-.62 2.1 0 .853.207 1.56.62 2.12.427.56 1.067.84 1.92.84s1.48-.28 1.88-.84c.413-.56.62-1.267.62-2.12 0-.84-.207-1.54-.62-2.1-.4-.56-1.027-.84-1.88-.84Zm12.151 6.1c.4 0 .74-.06 1.02-.18.293-.133.533-.347.72-.64h2.96a4.031 4.031 0 0 1-.68 1.42 3.63 3.63 0 0 1-1.08.98c-.414.253-.874.44-1.38.56-.507.107-1.04.16-1.6.16-1.707 0-3-.48-3.88-1.44-.867-.96-1.3-2.307-1.3-4.04 0-.787.113-1.513.34-2.18.24-.667.573-1.24 1-1.72a4.263 4.263 0 0 1 1.58-1.14c.64-.267 1.366-.4 2.18-.4.946 0 1.766.167 2.46.5.693.333 1.24.793 1.64 1.38.413.573.686 1.247.82 2.02.146.773.146 1.6 0 2.48h-7.2c.053.627.273 1.16.66 1.6.386.427.966.64 1.74.64Zm2.18-4.18c0-.333-.06-.627-.18-.88-.12-.267-.28-.48-.48-.64-.2-.173-.44-.3-.72-.38a2.911 2.911 0 0 0-.84-.12c-.707.013-1.26.207-1.66.58-.387.36-.614.84-.68 1.44h4.56Zm20.453-4.22v8.1h1.38v5.34h-2.82V15h-6.66v2.9h-2.84v-5.34h.4c.334 0 .587-.087.76-.26.174-.187.314-.42.42-.7.12-.32.207-.66.26-1.02.054-.36.094-.66.12-.9.094-.893.14-1.76.14-2.6.014-.853.034-1.727.06-2.62h8.78Zm-2.84 8.1V6.9h-3.32c0 .413-.013.833-.04 1.26a39.14 39.14 0 0 1-.06 1.28c-.026.507-.08 1.047-.16 1.62a4.14 4.14 0 0 1-.5 1.5h4.08Zm10.611.3c.4 0 .74-.06 1.02-.18.294-.133.534-.347.72-.64h2.96a3.997 3.997 0 0 1-.68 1.42c-.293.4-.653.727-1.08.98-.413.253-.873.44-1.38.56-.506.107-1.04.16-1.6.16-1.706 0-3-.48-3.88-1.44-.866-.96-1.3-2.307-1.3-4.04 0-.787.114-1.513.34-2.18.24-.667.574-1.24 1-1.72a4.27 4.27 0 0 1 1.58-1.14c.64-.267 1.367-.4 2.18-.4.947 0 1.767.167 2.46.5.694.333 1.24.793 1.64 1.38.414.573.687 1.247.82 2.02.147.773.147 1.6 0 2.48h-7.2c.054.627.274 1.16.66 1.6.387.427.967.64 1.74.64Zm2.18-4.18c0-.333-.06-.627-.18-.88-.12-.267-.28-.48-.48-.64-.2-.173-.44-.3-.72-.38a2.901 2.901 0 0 0-.84-.12c-.706.013-1.26.207-1.66.58-.386.36-.613.84-.68 1.44h4.56Zm14.326-4.22V15h-2.82V6.92h-2.98l-.08 1.8c-.014.6-.04 1.207-.08 1.82-.027.28-.054.573-.08.88-.027.307-.074.62-.14.94-.054.32-.14.62-.26.9-.107.28-.254.533-.44.76a2.56 2.56 0 0 1-1.24.78c-.48.133-.974.2-1.48.2h-.94v-2.48h.28c.346 0 .62-.073.82-.22.213-.16.366-.367.46-.62.106-.267.186-.553.24-.86.053-.32.093-.647.12-.98.066-.84.106-1.7.12-2.58.026-.88.053-1.813.08-2.8h8.42Zm7.334 10.7c-1.706 0-3.02-.48-3.94-1.44-.92-.973-1.38-2.32-1.38-4.04 0-.827.12-1.573.36-2.24.254-.68.6-1.26 1.04-1.74a4.279 4.279 0 0 1 1.66-1.08c.667-.253 1.42-.38 2.26-.38.827 0 1.567.127 2.22.38.667.24 1.227.6 1.68 1.08.467.48.82 1.06 1.06 1.74.254.667.38 1.413.38 2.24 0 1.733-.466 3.08-1.4 4.04-.92.96-2.233 1.44-3.94 1.44Zm0-8.4c-.853 0-1.493.28-1.92.84-.413.56-.62 1.26-.62 2.1 0 .853.207 1.56.62 2.12.427.56 1.067.84 1.92.84.854 0 1.48-.28 1.88-.84.414-.56.62-1.267.62-2.12 0-.84-.206-1.54-.62-2.1-.4-.56-1.026-.84-1.88-.84Z" fill="#333"/></svg><svg fill="none" viewBox="0 0 32 32" id="mail" xmlns="http://www.w3.org/2000/svg"><path d="m28.555 11.167-12-8a1 1 0 0 0-1.11 0l-12 8A1 1 0 0 0 3 12v13a2 2 0 0 0 2 2h22a2 2 0 0 0 2-2V12a1 1 0 0 0-.445-.833ZM12.09 19 5 24V13.94L12.09 19Zm2.046 1h3.728l7.078 5H7.058l7.078-5Zm5.774-1L27 13.94V24l-7.09-5Z" fill="#333"/></svg><svg fill="none" viewBox="0 0 58 58" id="medal" xmlns="http://www.w3.org/2000/svg"><path d="M48.938 21.75a19.938 19.938 0 1 0-32.626 15.368v17.257a1.813 1.813 0 0 0 2.624 1.622L29 50.977l10.066 5.032c.252.12.53.181.809.178a1.812 1.812 0 0 0 1.813-1.812V37.118a19.904 19.904 0 0 0 7.25-15.368Zm-36.25 0A16.312 16.312 0 1 1 29 38.063 16.33 16.33 0 0 1 12.687 21.75Zm3.624 0A12.688 12.688 0 1 1 29 34.438 12.7 12.7 0 0 1 16.312 21.75Z" fill="#fff"/></svg><svg viewBox="0 0 48 48" id="nextArrow" xmlns="http://www.w3.org/2000/svg"><path d="M24 4.5A19.5 19.5 0 1 1 4.5 24 19.521 19.521 0 0 1 24 4.5Zm-7.5 21h11.38l-3.441 3.439a1.502 1.502 0 0 0 2.122 2.122l6-6a1.5 1.5 0 0 0 0-2.122l-6-6a1.5 1.5 0 0 0-2.122 2.122l3.44 3.439H16.5a1.5 1.5 0 1 0 0 3Z"/></svg><svg fill="none" viewBox="0 0 32 32" id="phone" xmlns="http://www.w3.org/2000/svg"><path d="M28.985 21.885A7.032 7.032 0 0 1 22 28c-9.925 0-18-8.075-18-18a7.032 7.032 0 0 1 6.115-6.985 2 2 0 0 1 2.078 1.19l2.64 5.894v.015a2 2 0 0 1-.16 1.886 1.367 1.367 0 0 1-.07.096L12 15.181c.936 1.903 2.926 3.875 4.854 4.814l3.042-2.589c.03-.025.061-.048.094-.07a2 2 0 0 1 1.896-.175l.017.008 5.888 2.639a2 2 0 0 1 1.194 2.077Z" fill="#333"/></svg><svg viewBox="0 0 48 48" id="prevArrow" xmlns="http://www.w3.org/2000/svg"><path d="M24 4.5A19.5 19.5 0 1 0 43.5 24 19.521 19.521 0 0 0 24 4.5Zm7.5 21H20.12l3.441 3.439a1.502 1.502 0 0 1-2.122 2.122l-6-6a1.5 1.5 0 0 1 0-2.122l6-6a1.5 1.5 0 0 1 2.122 2.122l-3.44 3.439H31.5a1.5 1.5 0 1 1 0 3Z"/></svg><svg fill="none" viewBox="0 0 20 20" id="price" xmlns="http://www.w3.org/2000/svg"><path d="M19.009 10.625 11.25 2.866a1.238 1.238 0 0 0-.884-.366H3.125a.625.625 0 0 0-.625.625v7.241a1.239 1.239 0 0 0 .366.884l7.759 7.759a1.25 1.25 0 0 0 1.768 0l6.616-6.616a1.25 1.25 0 0 0 0-1.768ZM6.563 7.5a.938.938 0 1 1 0-1.875.938.938 0 0 1 0 1.875Z" fill="#333"/></svg><svg viewBox="0 0 16 10" id="selectArrow" xmlns="http://www.w3.org/2000/svg"><path d="m1 1 7 7 7-7"/></svg><svg fill="none" viewBox="0 0 32 33" id="shop" xmlns="http://www.w3.org/2000/svg"><path d="M27 5.5H5a2 2 0 0 0-2 2v18a2 2 0 0 0 2 2h22a2 2 0 0 0 2-2v-18a2 2 0 0 0-2-2Zm-11 12a6.006 6.006 0 0 1-6-6 1 1 0 0 1 2 0 4 4 0 1 0 8 0 1 1 0 0 1 2 0 6.006 6.006 0 0 1-6 6Z" fill="#00F"/></svg><svg fill="none" viewBox="0 0 32 32" id="warning" xmlns="http://www.w3.org/2000/svg"><path d="M16 3a13 13 0 1 0 13 13A13.013 13.013 0 0 0 16 3Zm-1 7a1 1 0 0 1 2 0v7a1 1 0 0 1-2 0v-7Zm1 13a1.5 1.5 0 1 1 0-3 1.5 1.5 0 0 1 0 3Z" fill="red"/></svg></svg>