<svg width="161" height="20" viewBox="0 0 161 20" fill="none" xmlns="http://www.w3.org/2000/svg">
<path d="M3.02695 7.88C3.02695 8.48 3.10028 9.06 3.24695 9.62C3.40695 10.18 3.64028 10.6733 3.94695 11.1C4.26695 11.5267 4.66695 11.8733 5.14695 12.14C5.64028 12.3933 6.22695 12.52 6.90695 12.52C7.76028 12.52 8.46028 12.3333 9.00695 11.96C9.56695 11.5733 9.91362 11.04 10.047 10.36H12.847C12.7803 11.1467 12.5736 11.84 12.227 12.44C11.8803 13.0267 11.4336 13.52 10.887 13.92C10.3403 14.32 9.72028 14.62 9.02695 14.82C8.33362 15.02 7.61362 15.12 6.86695 15.12C5.76028 15.12 4.78028 14.94 3.92695 14.58C3.08695 14.22 2.37362 13.72 1.78695 13.08C1.21362 12.44 0.780283 11.68 0.48695 10.8C0.193617 9.92 0.0469501 8.95333 0.0469501 7.9C0.0469501 6.87333 0.193617 5.92 0.48695 5.04C0.793617 4.14667 1.24028 3.38 1.82695 2.74C2.41362 2.08667 3.12695 1.58 3.96695 1.22C4.82028 0.846666 5.80028 0.66 6.90695 0.66C7.68028 0.66 8.40695 0.753333 9.08695 0.94C9.76695 1.12667 10.3736 1.41333 10.907 1.8C11.4403 2.18667 11.8736 2.68667 12.207 3.3C12.5536 3.9 12.767 4.62 12.847 5.46H10.047C9.90028 4.78 9.55362 4.24 9.00695 3.84C8.46028 3.44 7.76028 3.24 6.90695 3.24C6.22695 3.24 5.64028 3.36667 5.14695 3.62C4.66695 3.87333 4.26695 4.22 3.94695 4.66C3.64028 5.08667 3.40695 5.58 3.24695 6.14C3.10028 6.7 3.02695 7.28 3.02695 7.88ZM14.0205 6.9V4.46H23.8405V6.9H20.3205V15H17.5005V6.9H14.0205ZM28.0619 5.88C28.4753 5.37333 28.9886 4.98 29.6019 4.7C30.2286 4.40667 30.8553 4.25333 31.482 4.24C32.2286 4.22667 32.9219 4.36 33.562 4.64C34.202 4.90667 34.7353 5.36 35.162 6C35.5086 6.46667 35.762 7.01333 35.922 7.64C36.082 8.26667 36.162 8.92667 36.162 9.62C36.162 10.4867 36.0553 11.2733 35.8419 11.98C35.642 12.6733 35.2953 13.2733 34.802 13.78C34.3886 14.2333 33.8819 14.58 33.282 14.82C32.682 15.0467 32.082 15.16 31.482 15.16C31.1886 15.16 30.8953 15.14 30.602 15.1C30.3086 15.0733 30.0153 15.0133 29.722 14.92C29.4286 14.8267 29.1353 14.6933 28.842 14.52C28.5619 14.3467 28.2953 14.1133 28.0419 13.82V19.4H25.2219V4.46H27.9019L28.0619 5.88ZM30.7019 6.76C30.2886 6.76 29.9153 6.84 29.582 7C29.2619 7.14667 28.9886 7.35333 28.7619 7.62C28.5353 7.88667 28.3553 8.19333 28.2219 8.54C28.1019 8.88667 28.0419 9.26 28.0419 9.66C28.0286 10.5533 28.2619 11.2733 28.7419 11.82C29.2353 12.3533 29.902 12.6333 30.742 12.66C31.1953 12.66 31.582 12.5867 31.902 12.44C32.222 12.2933 32.482 12.0867 32.682 11.82C32.8953 11.5533 33.0553 11.24 33.1619 10.88C33.2819 10.52 33.3419 10.1267 33.3419 9.7C33.3419 9.28667 33.2819 8.9 33.1619 8.54C33.0553 8.18 32.8886 7.86667 32.662 7.6C32.4486 7.33333 32.182 7.12667 31.8619 6.98C31.542 6.83333 31.1553 6.76 30.7019 6.76ZM44.7177 13.7C44.3177 14.2333 43.8244 14.6133 43.2377 14.84C42.6644 15.0667 42.0044 15.1733 41.2577 15.16C40.2844 15.1333 39.4711 14.86 38.8177 14.34C38.4711 14.0467 38.1977 13.7 37.9977 13.3C37.8111 12.8867 37.7177 12.4 37.7177 11.84C37.7311 11.2667 37.8577 10.76 38.0977 10.32C38.3511 9.86667 38.7311 9.49333 39.2377 9.2C39.6644 8.97333 40.1444 8.81333 40.6777 8.72C41.2244 8.62667 41.8177 8.58 42.4577 8.58H44.6177C44.6577 7.92667 44.5044 7.44 44.1577 7.12C43.8244 6.78667 43.3511 6.61333 42.7377 6.6C42.5377 6.6 42.3311 6.61333 42.1177 6.64C41.9044 6.66667 41.7044 6.72 41.5177 6.8C41.3444 6.88 41.1911 6.99333 41.0577 7.14C40.9377 7.27333 40.8577 7.44 40.8177 7.64H37.9177C37.9844 7 38.1577 6.46667 38.4377 6.04C38.7311 5.6 39.0977 5.24667 39.5377 4.98C39.9777 4.71333 40.4644 4.52667 40.9977 4.42C41.5444 4.3 42.1044 4.24 42.6777 4.24C42.9977 4.24 43.3244 4.26 43.6577 4.3C43.9911 4.32667 44.3177 4.39333 44.6377 4.5C44.9577 4.59333 45.2577 4.72667 45.5377 4.9C45.8311 5.06 46.1044 5.27333 46.3577 5.54C46.8111 6.06 47.0911 6.66 47.1977 7.34C47.3177 8.00667 47.3711 8.66 47.3577 9.3V15H44.7777L44.7177 13.7ZM44.6177 10.34H42.5577C42.3577 10.34 42.1311 10.36 41.8777 10.4C41.6244 10.44 41.4044 10.5133 41.2177 10.62C41.0311 10.7267 40.8711 10.8667 40.7377 11.04C40.6177 11.2133 40.5577 11.4267 40.5577 11.68C40.5577 11.8933 40.5977 12.08 40.6777 12.24C40.7711 12.4 40.8844 12.5333 41.0177 12.64C41.1644 12.7467 41.3377 12.8333 41.5377 12.9C41.7377 12.9533 41.9377 12.98 42.1377 12.98C42.5244 12.9933 42.8844 12.9267 43.2177 12.78C43.5644 12.6333 43.8644 12.4267 44.1177 12.16C44.2777 11.9467 44.3977 11.7067 44.4777 11.44C44.5711 11.16 44.6177 10.7933 44.6177 10.34ZM55.9226 4.46H59.1226L55.7426 9.68L59.3026 15H56.1226L53.9426 11.5L51.8426 15H48.6826L52.1626 9.64L48.8626 4.46H52.1026L54.0426 7.88L55.9226 4.46ZM65.3704 15.16C63.6637 15.16 62.3504 14.68 61.4304 13.72C60.5104 12.7467 60.0504 11.4 60.0504 9.68C60.0504 8.85333 60.1704 8.10667 60.4104 7.44C60.6637 6.76 61.0104 6.18 61.4504 5.7C61.9037 5.22 62.4571 4.86 63.1104 4.62C63.7771 4.36667 64.5304 4.24 65.3704 4.24C66.1971 4.24 66.9371 4.36667 67.5904 4.62C68.2571 4.86 68.8171 5.22 69.2704 5.7C69.7371 6.18 70.0904 6.76 70.3304 7.44C70.5837 8.10667 70.7104 8.85333 70.7104 9.68C70.7104 11.4133 70.2437 12.76 69.3104 13.72C68.3904 14.68 67.0771 15.16 65.3704 15.16ZM65.3704 6.76C64.5171 6.76 63.8771 7.04 63.4504 7.6C63.0371 8.16 62.8304 8.86 62.8304 9.7C62.8304 10.5533 63.0371 11.26 63.4504 11.82C63.8771 12.38 64.5171 12.66 65.3704 12.66C66.2237 12.66 66.8504 12.38 67.2504 11.82C67.6637 11.26 67.8704 10.5533 67.8704 9.7C67.8704 8.86 67.6637 8.16 67.2504 7.6C66.8504 7.04 66.2237 6.76 65.3704 6.76ZM77.6412 4.46C77.9212 4.46 78.2145 4.46667 78.5212 4.48C78.8278 4.48 79.1278 4.5 79.4212 4.54C79.7145 4.58 79.9945 4.65333 80.2612 4.76C80.5278 4.85333 80.7745 4.99333 81.0012 5.18C81.2678 5.39333 81.4812 5.68 81.6412 6.04C81.8012 6.38667 81.8812 6.79333 81.8812 7.26C81.8812 7.66 81.7745 8.06 81.5612 8.46C81.3612 8.86 81.0412 9.18667 80.6012 9.44C81.1745 9.64 81.5945 9.96667 81.8612 10.42C82.1412 10.8733 82.2678 11.3867 82.2412 11.96C82.2145 12.5067 82.0878 12.9733 81.8612 13.36C81.6345 13.7333 81.3678 14.04 81.0612 14.28C80.6212 14.5867 80.1145 14.7867 79.5412 14.88C78.9678 14.9733 78.3745 15.0133 77.7612 15H72.7212V4.46H77.6412ZM77.9612 8.62C78.2812 8.62 78.5612 8.55333 78.8012 8.42C79.0412 8.27333 79.1612 8.02 79.1612 7.66C79.1612 7.44667 79.1145 7.28667 79.0212 7.18C78.9278 7.06 78.8078 6.97333 78.6612 6.92C78.5145 6.85333 78.3545 6.81333 78.1812 6.8C78.0212 6.77333 77.8612 6.76 77.7012 6.76H75.5412V8.62H77.9612ZM77.7612 12.62C77.9345 12.62 78.1145 12.6133 78.3012 12.6C78.5012 12.5733 78.6812 12.5267 78.8412 12.46C79.0145 12.3933 79.1545 12.2867 79.2612 12.14C79.3678 11.9933 79.4212 11.8067 79.4212 11.58C79.4212 11.38 79.3812 11.2133 79.3012 11.08C79.2345 10.9467 79.1412 10.8467 79.0212 10.78C78.9012 10.7133 78.7545 10.6667 78.5812 10.64C78.4212 10.6133 78.2612 10.6 78.1012 10.6H75.5412V12.62H77.7612ZM89.247 15.16C87.5403 15.16 86.227 14.68 85.307 13.72C84.387 12.7467 83.927 11.4 83.927 9.68C83.927 8.85333 84.047 8.10667 84.287 7.44C84.5403 6.76 84.887 6.18 85.327 5.7C85.7803 5.22 86.3336 4.86 86.987 4.62C87.6536 4.36667 88.407 4.24 89.247 4.24C90.0736 4.24 90.8136 4.36667 91.467 4.62C92.1336 4.86 92.6936 5.22 93.147 5.7C93.6136 6.18 93.967 6.76 94.207 7.44C94.4603 8.10667 94.587 8.85333 94.587 9.68C94.587 11.4133 94.1203 12.76 93.187 13.72C92.267 14.68 90.9536 15.16 89.247 15.16ZM89.247 6.76C88.3936 6.76 87.7536 7.04 87.327 7.6C86.9136 8.16 86.707 8.86 86.707 9.7C86.707 10.5533 86.9136 11.26 87.327 11.82C87.7536 12.38 88.3936 12.66 89.247 12.66C90.1003 12.66 90.727 12.38 91.127 11.82C91.5403 11.26 91.747 10.5533 91.747 9.7C91.747 8.86 91.5403 8.16 91.127 7.6C90.727 7.04 90.1003 6.76 89.247 6.76ZM101.398 12.86C101.798 12.86 102.138 12.8 102.418 12.68C102.711 12.5467 102.951 12.3333 103.138 12.04H106.098C105.951 12.5867 105.724 13.06 105.418 13.46C105.124 13.86 104.764 14.1867 104.338 14.44C103.924 14.6933 103.464 14.88 102.958 15C102.451 15.1067 101.918 15.16 101.358 15.16C99.6511 15.16 98.3577 14.68 97.4777 13.72C96.6111 12.76 96.1777 11.4133 96.1777 9.68C96.1777 8.89333 96.2911 8.16667 96.5177 7.5C96.7577 6.83333 97.0911 6.26 97.5177 5.78C97.9444 5.28667 98.4711 4.90667 99.0977 4.64C99.7377 4.37333 100.464 4.24 101.278 4.24C102.224 4.24 103.044 4.40667 103.738 4.74C104.431 5.07333 104.978 5.53333 105.378 6.12C105.791 6.69333 106.064 7.36667 106.198 8.14C106.344 8.91333 106.344 9.74 106.198 10.62H98.9977C99.0511 11.2467 99.2711 11.78 99.6577 12.22C100.044 12.6467 100.624 12.86 101.398 12.86ZM103.578 8.68C103.578 8.34667 103.518 8.05333 103.398 7.8C103.278 7.53333 103.118 7.32 102.918 7.16C102.718 6.98667 102.478 6.86 102.198 6.78C101.931 6.7 101.651 6.66 101.358 6.66C100.651 6.67333 100.098 6.86667 99.6977 7.24C99.3111 7.6 99.0844 8.08 99.0177 8.68H103.578ZM124.031 4.46V12.56H125.411V17.9H122.591V15H115.931V17.9H113.091V12.56H113.491C113.825 12.56 114.078 12.4733 114.251 12.3C114.425 12.1133 114.565 11.88 114.671 11.6C114.791 11.28 114.878 10.94 114.931 10.58C114.985 10.22 115.025 9.92 115.051 9.68C115.145 8.78667 115.191 7.92 115.191 7.08C115.205 6.22667 115.225 5.35333 115.251 4.46H124.031ZM121.191 12.56V6.9H117.871C117.871 7.31333 117.858 7.73333 117.831 8.16C117.818 8.58667 117.798 9.01333 117.771 9.44C117.745 9.94667 117.691 10.4867 117.611 11.06C117.531 11.62 117.365 12.12 117.111 12.56H121.191ZM131.802 12.86C132.202 12.86 132.542 12.8 132.822 12.68C133.116 12.5467 133.356 12.3333 133.542 12.04H136.502C136.356 12.5867 136.129 13.06 135.822 13.46C135.529 13.86 135.169 14.1867 134.742 14.44C134.329 14.6933 133.869 14.88 133.362 15C132.856 15.1067 132.322 15.16 131.762 15.16C130.056 15.16 128.762 14.68 127.882 13.72C127.016 12.76 126.582 11.4133 126.582 9.68C126.582 8.89333 126.696 8.16667 126.922 7.5C127.162 6.83333 127.496 6.26 127.922 5.78C128.349 5.28667 128.876 4.90667 129.502 4.64C130.142 4.37333 130.869 4.24 131.682 4.24C132.629 4.24 133.449 4.40667 134.142 4.74C134.836 5.07333 135.382 5.53333 135.782 6.12C136.196 6.69333 136.469 7.36667 136.602 8.14C136.749 8.91333 136.749 9.74 136.602 10.62H129.402C129.456 11.2467 129.676 11.78 130.062 12.22C130.449 12.6467 131.029 12.86 131.802 12.86ZM133.982 8.68C133.982 8.34667 133.922 8.05333 133.802 7.8C133.682 7.53333 133.522 7.32 133.322 7.16C133.122 6.98667 132.882 6.86 132.602 6.78C132.336 6.7 132.056 6.66 131.762 6.66C131.056 6.67333 130.502 6.86667 130.102 7.24C129.716 7.6 129.489 8.08 129.422 8.68H133.982ZM148.308 4.46V15H145.488V6.92H142.508C142.481 7.52 142.454 8.12 142.428 8.72C142.414 9.32 142.388 9.92667 142.348 10.54C142.321 10.82 142.294 11.1133 142.268 11.42C142.241 11.7267 142.194 12.04 142.128 12.36C142.074 12.68 141.988 12.98 141.868 13.26C141.761 13.54 141.614 13.7933 141.428 14.02C141.081 14.4067 140.668 14.6667 140.188 14.8C139.708 14.9333 139.214 15 138.708 15H137.768V12.52H138.048C138.394 12.52 138.668 12.4467 138.868 12.3C139.081 12.14 139.234 11.9333 139.328 11.68C139.434 11.4133 139.514 11.1267 139.568 10.82C139.621 10.5 139.661 10.1733 139.688 9.84C139.754 9 139.794 8.14 139.808 7.26C139.834 6.38 139.861 5.44667 139.888 4.46H148.308ZM155.642 15.16C153.936 15.16 152.622 14.68 151.702 13.72C150.782 12.7467 150.322 11.4 150.322 9.68C150.322 8.85333 150.442 8.10667 150.682 7.44C150.936 6.76 151.282 6.18 151.722 5.7C152.176 5.22 152.729 4.86 153.382 4.62C154.049 4.36667 154.802 4.24 155.642 4.24C156.469 4.24 157.209 4.36667 157.862 4.62C158.529 4.86 159.089 5.22 159.542 5.7C160.009 6.18 160.362 6.76 160.602 7.44C160.856 8.10667 160.982 8.85333 160.982 9.68C160.982 11.4133 160.516 12.76 159.582 13.72C158.662 14.68 157.349 15.16 155.642 15.16ZM155.642 6.76C154.789 6.76 154.149 7.04 153.722 7.6C153.309 8.16 153.102 8.86 153.102 9.7C153.102 10.5533 153.309 11.26 153.722 11.82C154.149 12.38 154.789 12.66 155.642 12.66C156.496 12.66 157.122 12.38 157.522 11.82C157.936 11.26 158.142 10.5533 158.142 9.7C158.142 8.86 157.936 8.16 157.522 7.6C157.122 7.04 156.496 6.76 155.642 6.76Z" fill="#333333"/>
</svg>
