<svg width="169" height="25" viewBox="0 0 169 25" fill="none" xmlns="http://www.w3.org/2000/svg">
<path d="M71.1148 9.91968V24.8224H56.2121V20.9964H63.9791C61.3525 15.7456 57.3129 9.91733 54.3601 9.91733C52.4752 9.91733 51.1232 13.1119 49.8158 16.2033C48.1046 20.2429 46.1682 24.8224 41.7483 24.8224C37.3284 24.8224 35.3896 20.2429 33.6784 16.2033C32.3733 13.1119 31.0213 9.91733 29.1341 9.91733C27.2469 9.91733 25.8973 13.1119 24.5898 16.2033C22.8787 20.2429 20.9422 24.8224 16.52 24.8224C13.208 24.8224 9.7458 22.0151 6.23431 16.4826C5.29306 14.9991 4.47621 13.5227 3.82368 12.2646V20.994H0V6.09131H14.9004V9.91733H6.90093C9.52516 15.1681 13.5671 20.9964 16.52 20.9964C18.4072 20.9964 19.7592 17.8018 21.0666 14.7128C22.7754 10.6708 24.7142 6.09131 29.1341 6.09131C33.554 6.09131 35.4928 10.6708 37.2016 14.7128C38.5091 17.8018 39.8611 20.9964 41.7483 20.9964C43.6355 20.9964 44.9851 17.8018 46.2926 14.7128C48.0014 10.6708 49.9402 6.09131 54.3601 6.09131C57.672 6.09131 61.1343 8.89863 64.6457 14.4311C65.702 16.0977 66.6034 17.7525 67.2888 19.1021V9.91968H71.1148Z" fill="#0000FF"/>
<path d="M84.5835 20.6138L82.9944 24.8225H78.0698L86.6091 2.75122H91.7215L100.139 24.8225H95.1813L93.6532 20.6138H84.5811H84.5835ZM85.8932 16.6235H92.3153L89.1348 7.55136L85.8932 16.6235Z" fill="#333333"/>
<path d="M105.5 14.7222H111.891V8.39404H116.288V24.8225H111.891V18.5248H105.5V24.8225H101.104V8.39404H105.5V14.7222Z" fill="#333333"/>
<path d="M123.393 18.5577V24.8225H118.996V8.39404H123.393V14.7528H125.575L129.129 8.39404H134.148L129.284 16.1869L134.521 24.8225H129.409L125.73 18.5577H123.393Z" fill="#333333"/>
<path d="M139.885 18.215L147.492 8.39639H151.264V24.8225H146.837V15.3138L139.448 24.8225H135.488V8.39404H139.885V18.2126V18.215Z" fill="#333333"/>
<path d="M169 8.39404V24.8225H164.603V12.2295H159.958C159.916 13.1637 159.881 14.1002 159.85 15.0344C159.82 15.9686 159.773 16.9146 159.709 17.8723C159.667 18.3088 159.627 18.7666 159.585 19.2431C159.543 19.7219 159.477 20.2101 159.383 20.7077C159.289 21.2054 159.153 21.6748 158.977 22.1114C158.801 22.548 158.566 22.9423 158.275 23.2968C157.735 23.9 157.09 24.3061 156.343 24.5126C155.595 24.7215 154.827 24.8248 154.036 24.8248H152.571V20.9589H153.008C153.548 20.9589 153.98 20.8392 154.301 20.5998C154.623 20.3603 154.862 20.0388 155.017 19.6327C155.172 19.2266 155.292 18.7806 155.376 18.2924C155.458 17.8042 155.522 17.2995 155.564 16.7808C155.667 15.471 155.735 14.1307 155.766 12.7599C155.796 11.3891 155.834 9.93384 155.874 8.39639H168.997L169 8.39404Z" fill="#333333"/>
<path d="M141.741 5.5184L137.751 0H142.178L145.638 5.5184H141.741Z" fill="#333333"/>
</svg>
