
<svg width="130" height="18" viewBox="0 0 130 18" fill="none" xmlns="http://www.w3.org/2000/svg">
    <path d="M54.7037 6.49568V17.9593H43.24V15.0162H49.2147C47.1943 10.9771 44.0869 6.49388 41.8154 6.49388C40.3656 6.49388 39.3255 8.95127 38.3198 11.3292C37.0036 14.4366 35.514 17.9593 32.1141 17.9593C28.7141 17.9593 27.2227 14.4366 25.9065 11.3292C24.9026 8.95127 23.8626 6.49388 22.4109 6.49388C20.9592 6.49388 19.921 8.95127 18.9153 11.3292C17.599 14.4366 16.1094 17.9593 12.7077 17.9593C10.16 17.9593 7.49677 15.7998 4.79562 11.5441C4.07158 10.403 3.44324 9.26725 2.94129 8.29946V15.0144H0V3.55078H11.4618V6.49388H5.30841C7.32705 10.533 10.4363 15.0162 12.7077 15.0162C14.1594 15.0162 15.1994 12.5588 16.2051 10.1827C17.5195 7.07347 19.011 3.55078 22.4109 3.55078C25.8108 3.55078 27.3022 7.07347 28.6166 10.1827C29.6224 12.5588 30.6624 15.0162 32.1141 15.0162C33.5657 15.0162 34.604 12.5588 35.6097 10.1827C36.9241 7.07347 38.4155 3.55078 41.8154 3.55078C44.3631 3.55078 47.0263 5.71026 49.7275 9.96601C50.54 11.248 51.2333 12.5209 51.7606 13.5591V6.49568H54.7037Z" fill="#0000FF"/>
    <path d="M65.0642 14.7229L63.8418 17.9603H60.0537L66.6224 0.982422H70.555L77.0298 17.9603H73.2164L72.041 14.7229H65.0624H65.0642ZM66.0717 11.6534H71.0118L68.5652 4.67483L66.0717 11.6534Z" fill="black"/>
    <path d="M81.1533 10.1921H86.0699V5.32422H89.4518V17.9615H86.0699V13.1171H81.1533V17.9615H77.7715V5.32422H81.1533V10.1921Z" fill="black"/>
    <path d="M94.917 13.1424V17.9615H91.5352V5.32422H94.917V10.2155H96.5962L99.3299 5.32422H103.19L99.449 11.3187L103.477 17.9615H99.5447L96.7154 13.1424H94.917Z" fill="black"/>
    <path d="M107.604 12.8788L113.455 5.32602H116.357V17.9615H112.952V10.6471L107.268 17.9615H104.222V5.32422H107.604V12.877V12.8788Z" fill="black"/>
    <path d="M130 5.32422V17.9615H126.618V8.27454H123.044C123.012 8.99316 122.985 9.71359 122.961 10.4322C122.938 11.1508 122.902 11.8785 122.853 12.6152C122.821 12.951 122.79 13.3031 122.757 13.6696C122.725 14.038 122.674 14.4135 122.602 14.7963C122.53 15.1791 122.425 15.5402 122.29 15.876C122.154 16.2119 121.974 16.5152 121.75 16.7879C121.335 17.2519 120.838 17.5642 120.264 17.7231C119.688 17.8838 119.097 17.9633 118.489 17.9633H117.362V14.9895H117.698C118.113 14.9895 118.446 14.8974 118.693 14.7132C118.94 14.5291 119.125 14.2817 119.244 13.9693C119.363 13.657 119.455 13.3139 119.52 12.9384C119.583 12.5628 119.632 12.1746 119.664 11.7756C119.744 10.768 119.796 9.73706 119.82 8.6826C119.843 7.62814 119.872 6.50868 119.903 5.32602H129.998L130 5.32422Z" fill="black"/>
</svg>
