<svg width="58" height="58" viewBox="0 0 58 58" fill="none" xmlns="http://www.w3.org/2000/svg">
<path d="M48.9375 21.75C48.9395 18.3901 48.0923 15.0842 46.4747 12.1393C44.8571 9.19439 42.5215 6.70608 39.6848 4.90546C36.8481 3.10484 33.6023 2.05031 30.249 1.83982C26.8957 1.62934 23.5436 2.26972 20.504 3.70149C17.4644 5.13326 14.8359 7.30998 12.8628 10.0295C10.8896 12.749 9.63569 15.923 9.21752 19.2568C8.79935 22.5906 9.23049 25.976 10.4709 29.0986C11.7113 32.2211 13.7207 34.9796 16.3125 37.1177V54.375C16.3123 54.6841 16.3911 54.9881 16.5415 55.2582C16.6919 55.5283 16.9089 55.7554 17.1718 55.9179C17.4347 56.0805 17.7348 56.1731 18.0436 56.187C18.3524 56.2008 18.6597 56.1355 18.9361 55.9972L29 50.9766L39.0662 56.0085C39.3185 56.1293 39.5953 56.1905 39.875 56.1875C40.3557 56.1875 40.8167 55.9965 41.1566 55.6566C41.4965 55.3167 41.6875 54.8557 41.6875 54.375V37.1177C43.9552 35.25 45.7814 32.9034 47.0349 30.2464C48.2884 27.5894 48.9381 24.6878 48.9375 21.75ZM12.6875 21.75C12.6875 18.5237 13.6442 15.3698 15.4367 12.6873C17.2291 10.0047 19.7768 7.91387 22.7575 6.67921C25.7382 5.44456 29.0181 5.12152 32.1824 5.75094C35.3467 6.38036 38.2533 7.93398 40.5347 10.2153C42.816 12.4967 44.3696 15.4033 44.9991 18.5676C45.6285 21.7319 45.3054 25.0118 44.0708 27.9925C42.8361 30.9732 40.7453 33.5209 38.0627 35.3133C35.3802 37.1058 32.2263 38.0625 29 38.0625C24.6751 38.0577 20.5288 36.3375 17.4706 33.2794C14.4125 30.2212 12.6923 26.0749 12.6875 21.75ZM16.3125 21.75C16.3125 19.2406 17.0566 16.7877 18.4507 14.7012C19.8449 12.6148 21.8264 10.9886 24.1447 10.0283C26.463 9.06799 29.0141 8.81674 31.4752 9.30629C33.9363 9.79584 36.197 11.0042 37.9714 12.7786C39.7458 14.553 40.9542 16.8137 41.4437 19.2748C41.9333 21.7359 41.682 24.287 40.7217 26.6053C39.7614 28.9236 38.1352 30.9052 36.0488 32.2993C33.9624 33.6934 31.5094 34.4375 29 34.4375C25.6362 34.4339 22.4111 33.096 20.0326 30.7174C17.654 28.3389 16.3161 25.1138 16.3125 21.75Z" fill="white"/>
</svg>
