<svg width="48" height="48" viewBox="0 0 48 48" xmlns="http://www.w3.org/2000/svg">
<path d="M24 4.5C27.8567 4.5 31.6269 5.64366 34.8336 7.78634C38.0404 9.92903 40.5397 12.9745 42.0156 16.5377C43.4916 20.1008 43.8777 24.0216 43.1253 27.8043C42.3729 31.5869 40.5157 35.0615 37.7886 37.7886C35.0614 40.5157 31.5869 42.3729 27.8043 43.1253C24.0216 43.8777 20.1008 43.4916 16.5377 42.0156C12.9745 40.5397 9.92902 38.0404 7.78633 34.8336C5.64365 31.6269 4.49999 27.8567 4.49999 24C4.50545 18.83 6.56166 13.8732 10.2174 10.2174C13.8732 6.56167 18.8299 4.50546 24 4.5ZM16.5 25.5H27.8794L24.4387 28.9387C24.2994 29.0781 24.1888 29.2436 24.1134 29.4257C24.038 29.6077 23.9992 29.8029 23.9992 30C23.9992 30.1971 24.038 30.3923 24.1134 30.5743C24.1888 30.7564 24.2994 30.9219 24.4387 31.0613C24.5781 31.2006 24.7436 31.3112 24.9256 31.3866C25.1077 31.462 25.3029 31.5008 25.5 31.5008C25.6971 31.5008 25.8922 31.462 26.0743 31.3866C26.2564 31.3112 26.4219 31.2006 26.5612 31.0613L32.5612 25.0613C32.7007 24.9219 32.8113 24.7565 32.8868 24.5744C32.9623 24.3923 33.0012 24.1971 33.0012 24C33.0012 23.8029 32.9623 23.6077 32.8868 23.4256C32.8113 23.2435 32.7007 23.0781 32.5612 22.9387L26.5612 16.9387C26.2798 16.6573 25.898 16.4992 25.5 16.4992C25.1019 16.4992 24.7202 16.6573 24.4387 16.9387C24.1573 17.2202 23.9992 17.602 23.9992 18C23.9992 18.398 24.1573 18.7798 24.4387 19.0613L27.8794 22.5H16.5C16.1022 22.5 15.7206 22.658 15.4393 22.9393C15.158 23.2206 15 23.6022 15 24C15 24.3978 15.158 24.7794 15.4393 25.0607C15.7206 25.342 16.1022 25.5 16.5 25.5Z"/>
</svg>
