<svg width="32" height="33" viewBox="0 0 32 33" fill="none" xmlns="http://www.w3.org/2000/svg">
<path d="M27 5.5H5C4.46957 5.5 3.96086 5.71071 3.58579 6.08579C3.21071 6.46086 3 6.96957 3 7.5V25.5C3 26.0304 3.21071 26.5391 3.58579 26.9142C3.96086 27.2893 4.46957 27.5 5 27.5H27C27.5304 27.5 28.0391 27.2893 28.4142 26.9142C28.7893 26.5391 29 26.0304 29 25.5V7.5C29 6.96957 28.7893 6.46086 28.4142 6.08579C28.0391 5.71071 27.5304 5.5 27 5.5ZM16 17.5C14.4092 17.4983 12.884 16.8657 11.7592 15.7408C10.6343 14.616 10.0017 13.0908 10 11.5C10 11.2348 10.1054 10.9804 10.2929 10.7929C10.4804 10.6054 10.7348 10.5 11 10.5C11.2652 10.5 11.5196 10.6054 11.7071 10.7929C11.8946 10.9804 12 11.2348 12 11.5C12 12.5609 12.4214 13.5783 13.1716 14.3284C13.9217 15.0786 14.9391 15.5 16 15.5C17.0609 15.5 18.0783 15.0786 18.8284 14.3284C19.5786 13.5783 20 12.5609 20 11.5C20 11.2348 20.1054 10.9804 20.2929 10.7929C20.4804 10.6054 20.7348 10.5 21 10.5C21.2652 10.5 21.5196 10.6054 21.7071 10.7929C21.8946 10.9804 22 11.2348 22 11.5C21.9983 13.0908 21.3657 14.616 20.2408 15.7408C19.116 16.8657 17.5908 17.4983 16 17.5Z" fill="#0000FF"/>
</svg>
